<svg width="58" height="58" viewBox="0 0 58 58" fill="none" xmlns="http://www.w3.org/2000/svg">
<path d="M42.4534 21.1684C42.0413 19.9545 41.2588 18.9005 40.2163 18.1546C39.1737 17.4086 37.9235 17.0084 36.6415 17.0103H31.7187V2.44141L29.6498 2.73696C24.9567 3.40736 21.301 5.78558 18.7854 9.80571C16.9716 12.7036 16.1285 15.9002 15.7372 18.2912C13.0358 20.3696 10.6856 23.2315 8.74342 26.8099C7.10662 29.8252 5.75166 33.3594 4.71605 37.3144C2.96619 43.9968 2.72932 49.5398 2.72014 49.7725L2.71924 56.1875H6.34367V49.885C6.38898 48.9525 7.53041 28.5484 18.4684 20.7789L19.1096 20.3234L19.2149 19.5439C19.7604 15.5082 21.6454 8.84248 28.0937 6.79356V20.6353H36.6415C37.1656 20.6337 37.6771 20.7965 38.1038 21.1008C38.5305 21.4051 38.8511 21.8355 39.0204 22.3316C40.4656 26.5973 42.9487 31.9352 46.8186 34.4437L45.6548 38.8082C45.2496 40.3647 44.3282 41.7376 43.0411 42.7021C41.7541 43.6667 40.1778 44.1658 38.5701 44.1177C35.3226 44.0203 31.9425 44.4439 28.5233 45.3764L27.1874 45.7406V56.1875H30.8124V48.5374C33.3174 47.9455 35.888 47.6779 38.4612 47.741C40.8844 47.8078 43.2592 47.0541 45.2006 45.6023C47.142 44.1505 48.5361 42.0855 49.157 39.7422L51.0927 32.483L49.6511 31.8652C46.955 30.7097 44.3989 26.9108 42.4534 21.1684Z" fill="#FF9A62"/>
</svg>
